<?xml version="1.0" encoding="UTF-8" standalone="no"?>
<svg
   version="1.0"
   width="1024.000000pt"
   height="1024.000000pt"
   viewBox="0 0 1024.000000 1024.000000"
   preserveAspectRatio="xMidYMid meet"
   id="svg10"
   sodipodi:docname="logo-white.svg"
   inkscape:version="1.3.2 (091e20e, 2023-11-25, custom)"
   xmlns:inkscape="http://www.inkscape.org/namespaces/inkscape"
   xmlns:sodipodi="http://sodipodi.sourceforge.net/DTD/sodipodi-0.dtd"
   xmlns="http://www.w3.org/2000/svg"
   xmlns:svg="http://www.w3.org/2000/svg">
  <defs
     id="defs10" />
  <sodipodi:namedview
     id="namedview10"
     pagecolor="#ffffff"
     bordercolor="#000000"
     borderopacity="0.25"
     inkscape:showpageshadow="2"
     inkscape:pageopacity="0.0"
     inkscape:pagecheckerboard="0"
     inkscape:deskcolor="#d1d1d1"
     inkscape:document-units="pt"
     inkscape:zoom="0.6262207"
     inkscape:cx="682.66667"
     inkscape:cy="682.66667"
     inkscape:window-width="1920"
     inkscape:window-height="1111"
     inkscape:window-x="-9"
     inkscape:window-y="-9"
     inkscape:window-maximized="1"
     inkscape:current-layer="g10" />
  <g
     transform="translate(0.000000,1024.000000) scale(0.100000,-0.100000)"
     fill="#000000"
     stroke="none"
     id="g10">
    <path
       d="M 4747.1901,9782.4401 C 4284.6184,9741.9982 3747.308,9588.3192 3272.6164,9359.8228 2406.0518,8941.2497 1559.6868,8087.9268 1095.0951,7163.8307 745.64133,6472.2753 614.34366,5845.4267 644.64312,5032.5456 c 12.11979,-361.9545 52.51908,-582.3625 173.71692,-960.4937 115.13795,-355.8882 355.51366,-879.6102 403.99276,-879.6102 8.0799,0 32.3195,26.2872 56.5591,60.6628 58.5789,78.8617 242.3957,202.2093 300.9746,202.2093 26.2595,0 46.4592,6.0662 46.4592,12.1325 0,8.0884 -32.3195,62.6849 -72.7187,123.3477 -151.4973,228.4964 -288.855,604.6054 -361.5736,982.7367 -42.4192,224.4522 -60.5989,839.1682 -32.3194,1112.1506 46.4591,461.037 228.2559,1091.9298 401.9728,1399.2878 163.6171,287.1371 381.7732,582.3626 666.5881,897.809 177.7569,196.1428 616.0891,574.2741 822.1254,705.7101 195.9366,127.3918 614.0691,331.6232 807.9857,394.3079 1014.022,331.6232 1991.6846,275.0046 3015.8064,-173.8999 143.4174,-62.6848 165.6371,-68.751 165.6371,-38.4197 0,76.8395 62.6187,270.9603 113.1179,349.822 28.2794,46.5081 44.4391,90.9941 34.3394,99.0825 -40.3993,36.3975 -484.7913,206.2533 -733.247,279.0486 -622.1489,186.0325 -1084.7206,236.5849 -1706.8697,184.0105 z"
       id="path1"
       style="fill:#ffffff;fill-opacity:1;stroke-width:2.02103" />
    <path
       d="M 1747.5436,9689.4237 707.26201,9683.3575 V 8391.2407 c 0,-711.7765 6.05989,-1298.1832 12.11979,-1306.2716 8.07986,-6.0662 30.29946,30.3315 48.47913,84.9279 52.51907,145.5907 189.87663,424.6394 276.73507,560.1196 204.0163,319.4905 654.4683,859.3891 836.2651,1007.0018 46.4592,36.3977 208.0563,177.9441 359.5537,313.4243 307.0344,275.0045 472.6715,394.3079 767.5863,547.9869 l 197.9564,105.1488 -208.0563,-4.0441 c -115.1378,-4.0442 -678.7078,-8.0884 -1250.3576,-10.1106 z"
       id="path2"
       style="fill:#ffffff;fill-opacity:1;stroke-width:2.02103" />
    <path
       d="m 9094.1528,7349.8631 c -12.1197,-32.3534 -195.9365,-123.3475 -288.8548,-141.5463 l -62.6189,-14.1547 36.3594,-74.8174 c 292.8948,-616.7381 416.1126,-1091.9298 434.2923,-1682.3806 24.2395,-731.9974 -107.0582,-1302.2274 -466.6117,-2032.2026 -248.4557,-503.501 -383.7932,-685.4893 -850.4049,-1142.482 -349.4538,-341.7336 -515.0909,-475.1917 -787.786,-638.9812 -591.8495,-351.844 -1123.1001,-505.523 -1826.0475,-527.766 -389.8531,-12.1326 -698.9077,22.243 -1080.6809,119.3034 -246.4355,62.6849 -704.9674,222.4301 -753.4466,262.872 -30.2994,26.2872 -28.2794,28.3093 -70.6987,-86.95 -20.1996,-50.5522 -80.7985,-139.5243 -135.3376,-200.1871 -54.5391,-58.6406 -98.9781,-111.215 -94.9383,-113.2371 2.02,-2.0222 94.9383,-44.4861 206.0363,-95.03839 418.1326,-188.05459 810.0057,-307.358 1216.0184,-365.99865 286.835,-40.44184 850.405,-42.46398 1137.2399,-2.02213 807.9855,115.25929 1545.2724,446.88237 2211.8606,994.86927 230.2759,190.0768 529.2306,483.2801 634.2687,622.8044 34.3394,44.486 103.0182,131.436 151.4972,192.0987 92.9185,111.2152 111.0982,137.5024 298.9548,424.6395 147.4574,226.4743 414.0926,786.5938 502.9711,1061.5983 183.8167,564.1638 230.2758,877.588 216.1361,1494.326 -10.0998,363.9767 -18.1797,463.0592 -66.6588,679.4231 -86.8584,408.4626 -236.3358,831.0799 -363.5935,1041.3774 -161.5972,262.872 -177.7569,281.0708 -197.9566,224.4521 z"
       id="path3"
       style="fill:#ffffff;fill-opacity:1;stroke-width:2.02103" />
    <path
       d="m 4979.4861,7323.576 c -270.6752,-28.3092 -620.129,-155.701 -854.4449,-313.4243 -68.6788,-44.486 -201.9964,-161.7673 -296.9347,-258.8278 -379.7533,-388.2417 -545.3903,-827.0356 -519.1308,-1385.1331 14.1398,-287.1371 62.6189,-493.3904 165.6371,-699.6438 244.4156,-487.3242 638.3087,-806.8147 1211.9784,-980.7147 171.6971,-54.5965 749.4067,-54.5965 939.2834,-2.0221 167.657,44.486 504.991,210.2975 638.3086,311.4021 139.3775,105.1489 434.2923,456.9929 515.0909,614.716 36.3594,70.7733 86.8584,169.8558 113.118,220.4081 111.098,220.408 149.4772,721.8869 78.7786,1061.5984 -121.1979,580.3405 -676.688,1168.7693 -1286.7172,1362.8901 -204.0163,64.7069 -480.7514,93.0162 -704.9674,68.7511 z"
       id="path4"
       style="fill:#ffffff;fill-opacity:1;stroke-width:2.02103" />
    <path
       d="m 1959.6397,6755.3681 c -8.0798,-275.0044 -12.1197,-1116.1949 -8.0798,-1868.4131 6.0598,-1130.3495 12.1198,-1368.9563 34.3394,-1360.8679 16.1596,6.0662 161.5972,10.1104 323.1942,10.1104 h 296.9348 l -6.06,1844.148 c -4.0398,1015.0902 -8.0798,1846.1701 -10.0998,1848.1922 -2.0199,2.022 -141.3974,8.0883 -309.0545,14.1547 l -307.0345,10.1104 z"
       id="path5"
       style="fill:#ffffff;fill-opacity:1;stroke-width:2.02103" />
    <path
       d="M 9508.2456,3135.8232 C 9259.7899,2668.72 8966.8951,2260.2574 8534.6228,1778.9994 8225.5684,1435.2437 7536.7605,905.45567 7177.207,733.57775 l -147.4574,-68.75104 424.1925,14.15453 c 234.3158,6.06639 822.1253,12.13266 1308.9367,14.15466 h 882.7243 V 2033.783 c 0,738.0636 -2.02,1340.6471 -6.06,1340.6471 -2.0199,0 -62.6188,-107.1709 -131.2975,-238.6069 z"
       id="path6"
       style="fill:#ffffff;fill-opacity:1;stroke-width:2.02103" />
    <path
       d="m 3201.9177,3091.3373 c 0,-66.7291 58.5789,-266.9163 107.058,-363.9767 l 44.4392,-90.9941 1888.6664,-6.0662 1888.6665,-4.0443 6.0598,115.2593 c 2.02,64.7069 10.0999,177.944 16.1598,254.7836 l 12.1198,135.4801 H 5183.5024 c -1951.2853,0 -1981.5847,0 -1981.5847,-40.4417 z"
       id="path7"
       style="fill:#ffffff;fill-opacity:1;stroke-width:2.02103" />
    <path
       d="M 1543.5271,2961.9233 C 1387.9899,2907.3268 1383.95,2905.3047 1258.7122,2812.2884 943.59781,2575.7037 755.74115,2128.8214 816.34007,1762.8226 c 64.63885,-380.1533 408.03273,-748.174 789.80593,-847.25653 155.5373,-40.44185 456.5119,-30.33132 616.0891,20.22092 333.294,103.12671 682.7478,509.56721 735.2669,857.36711 30.2994,188.0546 -14.1397,454.9707 -109.078,643.0253 -131.2977,268.9382 -410.0528,497.4346 -672.6481,552.0311 -189.8766,40.4419 -480.7514,28.3093 -632.2488,-26.2872 z"
       id="path8"
       style="fill:#ffffff;fill-opacity:1;stroke-width:2.02103" />
    <path
       d="m 5137.0432,2201.6167 c -1551.3324,-8.0884 -1749.2889,-14.1547 -1733.1292,-40.4418 10.0998,-16.1768 20.1997,-113.2372 20.1997,-216.3639 v -186.0325 l 107.0581,-20.2209 c 278.7551,-54.5965 478.7314,-62.6849 1666.4703,-60.6628 684.7678,0 1306.9168,6.0663 1379.6355,14.1547 129.2777,16.1766 137.3576,20.2209 252.4956,135.4802 66.6587,66.729 153.5172,147.6127 195.9364,177.944 58.5789,44.486 135.3377,161.7674 135.3377,208.2755 0,4.0442 -60.5989,6.0663 -135.3377,4.0442 -76.7586,-4.0442 -925.1435,-10.1104 -1888.6664,-16.1767 z"
       id="path9"
       style="fill:#ffffff;fill-opacity:1;stroke-width:2.02103" />
  </g>
</svg>
