<?xml version="1.0" encoding="UTF-8" standalone="no"?>
<svg
   version="1.0"
   width="1024.000000pt"
   height="1024.000000pt"
   viewBox="0 0 1024.000000 1024.000000"
   preserveAspectRatio="xMidYMid meet"
   id="svg7"
   sodipodi:docname="contact-animated.svg"
   inkscape:version="1.3.2 (091e20e, 2023-11-25, custom)"
   xmlns:inkscape="http://www.inkscape.org/namespaces/inkscape"
   xmlns:sodipodi="http://sodipodi.sourceforge.net/DTD/sodipodi-0.dtd"
   xmlns="http://www.w3.org/2000/svg"
   xmlns:svg="http://www.w3.org/2000/svg">
  <defs
     id="defs7" />
  <sodipodi:namedview
     id="namedview7"
     pagecolor="#ffffff"
     bordercolor="#000000"
     borderopacity="0.25"
     inkscape:showpageshadow="2"
     inkscape:pageopacity="0.0"
     inkscape:pagecheckerboard="0"
     inkscape:deskcolor="#d1d1d1"
     inkscape:document-units="pt"
     showgrid="false"
     inkscape:zoom="0.63"
     inkscape:cx="683.33333"
     inkscape:cy="554.7619"
     inkscape:window-width="1920"
     inkscape:window-height="1111"
     inkscape:window-x="-9"
     inkscape:window-y="-9"
     inkscape:window-maximized="1"
     inkscape:current-layer="g7" />
  <g
     transform="matrix(0.11288851,0,0,-0.1202514,-45.376128,1039.7335)"
     fill="#000000"
     stroke="none"
     id="g7">
    <path
       d="m 4772,8400 c -175,-25 -333,-84 -456,-172 -94,-66 -201,-172 -191,-188 4,-6 1,-9 -5,-8 -10,2 -100,-113 -100,-127 0,-3 -17,-42 -39,-87 -21,-46 -44,-108 -51,-138 -7,-30 -19,-75 -27,-100 -9,-29 -17,-113 -20,-235 -6,-180 -7,-191 -29,-218 -33,-40 -47,-99 -48,-202 -1,-117 15,-170 73,-238 25,-31 56,-82 69,-114 48,-125 211,-298 336,-358 119,-56 277,-95 391,-95 42,0 52,-4 60,-22 20,-43 61,-63 131,-63 64,0 66,1 105,42 29,32 39,51 39,75 0,66 -55,108 -140,108 -60,0 -100,-18 -120,-54 -16,-31 -24,-31 -173,-11 -226,30 -398,135 -523,320 -38,56 -48,99 -15,66 25,-25 94,-34 160,-21 30,6 56,12 59,14 2,2 -1,53 -7,112 -17,169 -15,313 6,336 43,47 162,278 193,373 12,39 24,72 26,74 2,2 16,-12 31,-30 105,-128 242,-210 431,-260 105,-29 357,-37 457,-16 39,8 73,13 78,10 4,-2 27,-41 50,-86 l 42,-82 3,-222 c 4,-253 -5,-233 104,-233 65,0 108,13 108,34 0,9 15,17 39,21 75,12 151,96 187,204 33,103 9,245 -57,330 -15,19 -19,41 -19,115 -1,165 -18,327 -45,420 -33,113 -119,282 -188,366 -138,169 -353,302 -561,346 -87,19 -279,26 -364,14 z m 313,-74 c 97,-18 138,-32 246,-86 232,-116 383,-288 473,-540 43,-118 56,-199 56,-346 0,-133 0,-134 -22,-130 -13,3 -26,5 -30,5 -5,1 -8,10 -8,21 0,21 -17,27 -80,32 -26,2 -34,7 -31,18 3,8 7,59 9,112 5,134 -11,223 -61,321 -73,147 -274,322 -430,377 -90,32 -234,54 -347,53 -163,-1 -263,-41 -390,-157 -37,-34 -100,-79 -140,-100 -90,-48 -134,-91 -186,-186 -61,-112 -66,-133 -63,-287 3,-131 2,-136 -18,-144 -12,-4 -25,-14 -30,-22 -4,-8 -19,-20 -32,-27 -18,-9 -22,-9 -16,0 6,9 2,9 -14,1 -17,-10 -22,-9 -28,5 -11,29 6,236 31,372 14,73 22,141 19,150 -3,11 -2,13 4,5 5,-8 22,14 48,65 22,42 43,79 47,82 4,3 25,33 47,67 21,33 56,73 76,89 20,16 60,48 87,71 92,76 296,159 448,182 90,14 249,12 335,-3 z m 762,-1123 c 2,-6 -8,-18 -22,-27 -25,-16 -25,-16 -25,14 0,25 3,29 22,27 12,-2 23,-8 25,-14 z"
       id="path1"
       style="fill:#0db851;fill-opacity:1" />
    <path
       d="m 4460,5950 c -9,-6 -10,-10 -3,-10 6,0 15,5 18,10 8,12 4,12 -15,0 z"
       id="path2" />
    <path
       d="m 5382,5923 c 9,-10 20,-36 23,-58 9,-54 -11,-464 -29,-606 -8,-63 -20,-193 -26,-289 -12,-188 -16,-239 -30,-370 -6,-47 -10,-102 -10,-122 v -38 h 143 c 79,0 146,3 149,6 7,6 614,2 746,-5 24,-2 111,-93 123,-129 14,-41 8,-417 -11,-722 -6,-96 -15,-346 -19,-555 -5,-209 -12,-391 -16,-404 l -8,-24 171,6 c 135,5 185,11 234,28 177,59 300,179 350,343 26,84 30,253 9,351 -71,332 -379,1187 -561,1560 -170,348 -319,499 -698,707 -264,145 -282,153 -283,121 0,-10 -7,-2 -15,17 -11,27 -41,54 -136,118 -68,46 -115,75 -106,65 z"
       id="path3"
       style="stroke:#2ab561;stroke-opacity:1;fill:#2bba64;fill-opacity:1" />
    <path
       d="m 4331,5869 c -109,-64 -167,-112 -176,-146 -6,-22 -9,-24 -14,-11 -5,15 -13,14 -73,-13 -72,-32 -324,-172 -398,-222 -232,-157 -380,-352 -543,-717 -176,-395 -443,-1187 -482,-1426 -17,-108 -20,-257 -5,-335 30,-160 159,-292 340,-351 52,-16 102,-22 245,-27 99,-4 181,-6 182,-6 2,1 -2,16 -7,35 -5,18 -12,76 -14,129 -23,429 -28,583 -36,990 -9,542 -10,539 67,612 30,29 65,51 89,58 26,6 208,8 530,5 l 491,-5 -3,23 c -8,50 -43,378 -49,448 -3,41 -10,113 -15,160 -9,81 -20,203 -37,390 -4,47 -7,169 -7,273 0,103 0,187 0,186 -1,0 -39,-23 -85,-50 z"
       id="path4"
       style="fill:#2bba64;stroke:#000000;stroke-opacity:1;fill-opacity:1"
       inkscape:label="path4" />
    <path
       d="m 8645,5040 c -22,-4 -71,-20 -110,-34 -250,-94 -439,-379 -447,-675 -3,-73 1,-93 20,-133 l 24,-48 -32,-122 c -18,-68 -40,-160 -49,-206 l -17,-83 -12,108 c -14,115 -63,279 -90,300 -22,18 -27,8 -10,-19 8,-13 17,-36 20,-53 3,-16 20,-93 37,-170 31,-137 36,-181 45,-433 l 5,-123 -256,2 c -204,0 -257,-2 -264,-13 -10,-15 -12,-178 -3,-202 4,-10 18,-16 38,-16 h 33 l 6,-194 c 7,-231 19,-274 99,-362 88,-95 99,-99 348,-102 l 215,-3 54,35 c 30,19 66,53 80,74 14,22 36,48 48,58 12,11 33,47 47,81 25,59 26,72 26,240 v 179 l 40,-4 40,-4 v 104 c 0,68 -4,108 -12,116 -9,9 -75,12 -235,12 -123,0 -223,3 -223,8 0,4 22,41 49,83 l 49,76 58,8 c 110,13 288,64 374,106 170,84 318,280 328,435 4,58 3,62 -19,69 -13,5 -85,8 -159,8 -121,0 -143,-3 -215,-27 -108,-37 -180,-83 -257,-164 -87,-92 -163,-243 -184,-362 -14,-86 -50,-208 -65,-224 -12,-13 0,274 17,389 13,92 86,378 102,400 4,6 41,21 82,34 102,31 252,115 321,179 94,86 171,226 200,359 15,71 18,288 4,302 -15,14 -104,21 -150,11 z"
       id="path5"
       style="fill:#3be37e;fill-opacity:1" />
    <path
       d="m 4835,3652 c -57,-28 -96,-73 -110,-130 -31,-117 47,-241 161,-258 126,-19 242,111 219,245 -8,50 -54,115 -96,136 -50,26 -127,29 -174,7 z"
       id="path6"
       style="fill:#bfffd9;fill-opacity:1" />
    <path
       d="m 3322,2523 c -21,-4 -23,-9 -20,-59 l 3,-55 1610,1 c 1259,0 1611,3 1617,13 4,6 5,20 2,30 -5,15 3,17 78,17 46,0 100,-5 121,-11 74,-20 145,-108 162,-200 l 6,-34 -3073,3 c -2994,3 -3074,2 -3108,-16 -55,-30 -80,-75 -80,-143 0,-54 3,-62 37,-100 21,-23 49,-46 63,-52 15,-6 99,-9 218,-8 l 192,3 V 1346 781 l 221,-3 c 121,-2 223,-1 225,1 2,2 4,258 4,568 v 564 l 2649,-3 2648,-3 7,-305 c 8,-340 14,-375 76,-506 64,-132 179,-219 371,-279 64,-20 374,-33 399,-16 27,18 0,25 -130,32 -150,8 -193,15 -273,40 -98,31 -178,80 -248,150 -56,56 -72,80 -99,150 -42,106 -46,155 -42,474 l 4,260 659,1 659,1 V 1343 780 h 220 220 l 2,560 3,560 205,3 c 185,3 209,5 245,24 71,38 98,75 103,144 l 4,60 -51,50 -51,49 H 8065 6950 v 25 c 0,36 -33,117 -64,157 -34,45 -106,84 -181,97 -39,6 -598,10 -1615,9 -855,0 -1598,2 -1650,5 -52,3 -105,3 -118,0 z"
       id="path7"
       style="fill:#6aba8a;fill-opacity:1" />
  </g>
</svg>
