<?xml version="1.0" encoding="UTF-8" standalone="no"?>
<svg
   version="1.0"
   width="1024.000000pt"
   height="1024.000000pt"
   viewBox="0 0 1024.000000 1024.000000"
   preserveAspectRatio="xMidYMid meet"
   id="svg10"
   sodipodi:docname="logo-green.svg"
   inkscape:version="1.3.2 (091e20e, 2023-11-25, custom)"
   xmlns:inkscape="http://www.inkscape.org/namespaces/inkscape"
   xmlns:sodipodi="http://sodipodi.sourceforge.net/DTD/sodipodi-0.dtd"
   xmlns="http://www.w3.org/2000/svg"
   xmlns:svg="http://www.w3.org/2000/svg">
  <defs
     id="defs10" />
  <sodipodi:namedview
     id="namedview10"
     pagecolor="#ffffff"
     bordercolor="#000000"
     borderopacity="0.25"
     inkscape:showpageshadow="2"
     inkscape:pageopacity="0.0"
     inkscape:pagecheckerboard="0"
     inkscape:deskcolor="#d1d1d1"
     inkscape:document-units="pt"
     inkscape:zoom="0.6262207"
     inkscape:cx="682.66667"
     inkscape:cy="682.66667"
     inkscape:window-width="1920"
     inkscape:window-height="1111"
     inkscape:window-x="-9"
     inkscape:window-y="-9"
     inkscape:window-maximized="1"
     inkscape:current-layer="g10" />
  <g
     transform="translate(0.000000,1024.000000) scale(0.100000,-0.100000)"
     fill="#000000"
     stroke="none"
     id="g10">
    <path
       d="M4985 7409 c-229 -20 -495 -96 -730 -209 -429 -207 -848 -629 -1078 -1086 -173 -342 -238 -652 -223 -1054 6 -179 26 -288 86 -475 57 -176 176 -435 200 -435 4 0 16 13 28 30 29 39 120 100 149 100 13 0 23 3 23 6 0 4 -16 31 -36 61 -75 113 -143 299 -179 486 -21 111 -30 415 -16 550 23 228 113 540 199 692 81 142 189 288 330 444 88 97 305 284 407 349 97 63 304 164 400 195 502 164 986 136 1493 -86 71 -31 82 -34 82 -19 0 38 31 134 56 173 14 23 22 45 17 49 -20 18 -240 102 -363 138 -308 92 -537 117 -845 91z"
       id="path1"
       style="fill:#2bba64;fill-opacity:1" />
    <path
       d="M3500 7363 l-515 -3 0 -639 c0 -352 3 -642 6 -646 4 -3 15 15 24 42 26 72 94 210 137 277 101 158 324 425 414 498 23 18 103 88 178 155 152 136 234 195 380 271 l98 52 -103 -2 c-57 -2 -336 -4 -619 -5z"
       id="path2"
       style="fill:#2bba64;fill-opacity:1" />
    <path
       d="M7137 6206 c-6 -16 -97 -61 -143 -70 l-31 -7 18 -37 c145 -305 206 -540 215 -832 12 -362 -53 -644 -231 -1005 -123 -249 -190 -339 -421 -565 -173 -169 -255 -235 -390 -316 -293 -174 -556 -250 -904 -261 -193 -6 -346 11 -535 59 -122 31 -349 110 -373 130 -15 13 -14 14 -35 -43 -10 -25 -40 -69 -67 -99 -27 -29 -49 -55 -47 -56 1 -1 47 -22 102 -47 207 -93 401 -152 602 -181 142 -20 421 -21 563 -1 400 57 765 221 1095 492 114 94 262 239 314 308 17 22 51 65 75 95 46 55 55 68 148 210 73 112 205 389 249 525 91 279 114 434 107 739 -5 180 -9 229 -33 336 -43 202 -117 411 -180 515 -80 130 -88 139 -98 111z"
       id="path3"
       style="fill:#3be37e;fill-opacity:1" />
    <path
       d="M5100 6193 c-134 -14 -307 -77 -423 -155 -34 -22 -100 -80 -147 -128 -188 -192 -270 -409 -257 -685 7 -142 31 -244 82 -346 121 -241 316 -399 600 -485 85 -27 371 -27 465 -1 83 22 250 104 316 154 69 52 215 226 255 304 18 35 43 84 56 109 55 109 74 357 39 525 -60 287 -335 578 -637 674 -101 32 -238 46 -349 34z"
       id="path4"
       style="fill:#2bba64;fill-opacity:1" />
    <path
       d="M3605 5912 c-4 -136 -6 -552 -4 -924 3 -559 6 -677 17 -673 8 3 80 5 160 5 l147 0 -3 912 c-2 502 -4 913 -5 914 -1 1 -70 4 -153 7 l-152 5 -7 -246z"
       id="path5"
       style="fill:#2bba64;fill-opacity:1" />
    <path
       d="M7342 4122 c-123 -231 -268 -433 -482 -671 -153 -170 -494 -432 -672 -517 l-73 -34 210 7 c116 3 407 6 648 7 l437 0 0 663 c0 365 -1 663 -3 663 -1 0 -31 -53 -65 -118z"
       id="path6"
       style="fill:#3be37e;fill-opacity:1" />
    <path
       d="M4220 4100 c0 -33 29 -132 53 -180 l22 -45 935 -3 935 -2 3 57 c1 32 5 88 8 126 l6 67 -981 0 c-966 0 -981 0 -981 -20z"
       id="path7"
       style="fill:#3be37e;fill-opacity:1" />
    <path
       d="M3399 4036 c-77 -27 -79 -28 -141 -74 -156 -117 -249 -338 -219 -519 32 -188 202 -370 391 -419 77 -20 226 -15 305 10 165 51 338 252 364 424 15 93 -7 225 -54 318 -65 133 -203 246 -333 273 -94 20 -238 14 -313 -13z"
       id="path8"
       style="fill:#3be37e;fill-opacity:1" />
    <path
       d="M5178 3660 c-768 -4 -866 -7 -858 -20 5 -8 10 -56 10 -107 l0 -92 53 -10 c138 -27 237 -31 825 -30 339 0 647 3 683 7 64 8 68 10 125 67 33 33 76 73 97 88 29 22 67 80 67 103 0 2 -30 3 -67 2 -38 -2 -458 -5 -935 -8z"
       id="path9"
       style="fill:#3be37e;fill-opacity:1" />
  </g>
</svg>
